<svg width="716" height="153" viewBox="0 0 716 153" fill="none" xmlns="http://www.w3.org/2000/svg">
<mask id="mask0" mask-type="alpha" maskUnits="userSpaceOnUse" x="1" y="0" width="713" height="152">
<rect x="1" width="713" height="152" rx="8" fill="white"/>
</mask>
<g mask="url(#mask0)">
<path d="M149.729 91.2374C114.356 96.4171 35.8374 48.5707 1 24V152H715V39.9377C611.995 56.8716 565.266 99.2062 532.103 114.646C498.941 130.086 383.374 53.8833 309.512 53.8833C248.466 53.8833 193.946 84.7626 149.729 91.2374Z" fill="#0181EE" fill-opacity="0.1"/>
<path d="M1 16.115V153L716 151.997V57.2306C692.871 57.5649 635.952 63.047 593.314 82.3012C540.015 106.369 512.361 83.8054 486.214 66.256C460.068 48.7067 425.374 29.1517 382.132 30.1545C338.89 31.1573 240.339 70.7687 189.052 80.2955C137.765 89.8223 101.563 16.115 67.8741 12.1037C40.9233 8.8947 12.0619 13.4408 1 16.115Z" fill="#0181EE" fill-opacity="0.1"/>
<path d="M88.0542 44.0314C63.4996 11.241 19.1203 4.37629 0 5.04276V152H715V80.021C648.582 38.0332 583.673 58.0274 563.044 65.5252C542.414 73.023 498.638 115.011 457.882 71.5234C417.125 28.0361 328.568 13.5403 256.615 52.0291C184.662 90.5179 118.747 85.0195 88.0542 44.0314Z" fill="#0181EE" fill-opacity="0.1"/>
<path d="M1 152V102.435C41.1968 74.3981 94.4575 93.7569 116.063 106.941C141.689 124.798 205.3 152.801 254.742 121.961C316.545 83.41 341.165 78.4034 387.391 78.4034C433.618 78.4034 537.627 130.472 571.794 127.968C605.961 125.465 619.528 106.44 653.193 74.8988C680.124 49.6657 706.286 55.0394 716 60.8804V152H1Z" fill="#0181EE" fill-opacity="0.1"/>
</g>
</svg>
